<svg width="1569" height="525" viewBox="0 0 1569 525" fill="none" xmlns="http://www.w3.org/2000/svg">
<path d="M258.559 0.947662V162.106L200.38 56.16L258.559 0.947662Z" fill="url(#paint0_linear_5_131)"/>
<path d="M258.559 162.105V163.296H180.513L200.38 56.1587L258.559 162.105Z" fill="url(#paint1_linear_5_131)"/>
<path d="M200.379 56.16L180.512 163.297L164.417 15.6857L200.379 56.16Z" fill="url(#paint2_linear_5_131)"/>
<path d="M258.557 0.947662L200.378 56.16L164.416 15.6857L106.457 1.83412C112.518 1.25242 118.798 0.947662 125.378 0.947662H258.557Z" fill="#54E694"/>
<path d="M258.564 0.95694L200.385 56.1785L164.417 15.7043L200.977 50.5821L258.564 0.95694Z" fill="#E6FBEF"/>
<path d="M102.13 2.30582L53.9548 107.144L0.701294 121.217C3.31972 86.0892 13.4272 58.1925 30.9871 37.4612C47.6498 17.7919 71.3621 6.10145 102.13 2.30582Z" fill="url(#paint3_linear_5_131)"/>
<path d="M223.066 375.477L117.463 339.907L117.445 339.876C106.257 328.436 94.1837 317.327 81.2382 306.486C67.0842 294.684 53.992 281.276 41.9556 266.261C29.9257 251.274 19.9281 233.793 11.9568 213.874C3.97341 193.956 0 169.457 0 140.424C0 133.803 0.238029 127.404 0.695794 121.225L53.9495 107.153L223.06 375.477H223.066Z" fill="url(#paint4_linear_5_131)"/>
<path d="M111.847 198.998L53.9667 114.605L0.713257 121.235L53.9667 107.153L111.847 198.998Z" fill="#E6FBEF"/>
<path d="M268.317 383.26C268.317 386.252 268.262 389.22 268.152 392.125L223.071 375.477L209.54 236.083C215.363 242.621 220.966 249.491 226.367 256.667C238.404 272.652 248.395 290.889 256.366 311.269C264.332 331.716 268.323 355.689 268.323 383.254L268.317 383.26Z" fill="url(#paint5_linear_5_131)"/>
<path d="M268.158 392.137L223.071 375.484L209.54 236.092L225.403 371.966L268.158 392.137Z" fill="#E6FBEF"/>
<path d="M268.154 392.119C266.781 429.766 256.509 459.63 237.331 481.774C216.671 505.654 185.213 517.573 142.952 517.573L223.067 375.477L268.148 392.125L268.154 392.119Z" fill="url(#paint6_linear_5_131)"/>
<path d="M223.066 375.477L142.951 517.573H96.5638L94.8792 502.835C119.22 502.724 136.542 497.185 146.851 486.212C157.251 475.135 162.452 458.79 162.452 437.153C162.452 415.517 158.46 398.146 150.495 383.619C142.53 369.129 132.526 355.584 120.496 343.035C119.489 341.984 118.482 340.927 117.456 339.907L223.06 375.477H223.066Z" fill="url(#paint7_linear_5_131)"/>
<path d="M78.0512 355.214L45.6963 487.647L0.00500488 355.214H78.0512Z" fill="url(#paint8_linear_5_131)"/>
<path d="M78.0589 355.232L45.704 487.665L0.0189209 355.232L45.704 475.277L78.0589 355.232Z" fill="#E6FBEF"/>
<path d="M45.6963 487.647L0.00500488 517.567V355.207L45.6963 487.634V487.647Z" fill="url(#paint9_linear_5_131)"/>
<path d="M96.5634 517.573H0.00500488L45.6963 487.653L96.5634 517.573Z" fill="url(#paint10_linear_5_131)"/>
<path d="M223.065 375.477L53.954 107.144L102.13 2.30643C103.539 2.14014 104.986 1.97386 106.433 1.83539H106.451L164.41 15.687C153.351 15.687 144.085 17.9031 136.596 22.3355C129.107 26.7679 123.101 32.4193 118.536 39.3176C113.995 46.2159 110.735 53.8337 108.795 62.2002C106.835 70.5667 105.865 78.6834 105.865 86.5516C105.865 104.254 109.838 120.137 117.822 134.155C125.768 148.172 135.784 161.58 147.821 174.379C159.857 187.178 172.943 200.088 187.085 213.108C194.885 220.311 202.374 227.957 209.534 236.047V236.074L223.065 375.465V375.477Z" fill="url(#paint11_linear_5_131)"/>
<path d="M155.476 268.23L53.9622 107.154L102.137 2.32559L59.7605 109.74L155.476 268.238V268.23Z" fill="#E6FBEF"/>
<path d="M96.5646 517.573L45.6975 487.653L78.0524 355.226L94.1657 502.835H94.8799L96.5646 517.573Z" fill="url(#paint12_linear_5_131)"/>
<path d="M567.831 0.947662V163.306L493.924 16.6649L567.831 0.947662Z" fill="url(#paint13_linear_5_131)"/>
<path d="M503.273 22.2885L567.843 163.306L493.933 16.6643L567.835 0.95694L503.265 22.2885H503.273Z" fill="#E6FBEF"/>
<path d="M567.831 0.947662L493.929 16.6557L463.93 15.6857L323.934 0.947662H567.831Z" fill="#54E694"/>
<path d="M463.93 15.6857H431.242L394.247 64.4708L323.934 0.947662L463.93 15.6857Z" fill="#54E694"/>
<path d="M431.246 15.7043L394.258 64.4893L323.939 0.95694L393.929 57.2035L431.246 15.7043Z" fill="#E6FBEF"/>
<path d="M493.925 16.655L489.777 163.297L463.926 15.6857L493.925 16.655Z" fill="url(#paint14_linear_5_131)"/>
<path d="M567.831 355.214V517.573L489.107 503.416L567.831 355.226V355.214Z" fill="url(#paint15_linear_5_131)"/>
<path d="M489.785 355.214L489.107 503.41L463.93 502.829L489.785 355.214Z" fill="url(#paint16_linear_5_131)"/>
<path d="M567.831 517.573H421.497L431.246 502.835H463.93L489.107 503.416L567.831 517.573Z" fill="url(#paint17_linear_5_131)"/>
<path d="M394.247 64.48L358.486 450.364L323.934 517.585V0.947662L394.253 64.48H394.247Z" fill="url(#paint18_linear_5_131)"/>
<path d="M528.806 216.442V231.217H431.242V502.835L358.486 450.364L394.247 64.4813L431.242 15.6963V216.442H528.806Z" fill="url(#paint19_linear_5_131)"/>
<path d="M567.831 355.214L489.107 503.41L489.785 355.214H567.831Z" fill="url(#paint20_linear_5_131)"/>
<path d="M567.839 355.232L489.115 503.429L489.794 355.232L494.664 483.981L567.839 355.232Z" fill="#E6FBEF"/>
<path d="M431.242 502.835L421.501 517.573H323.934L358.486 450.358L431.242 502.829V502.835Z" fill="url(#paint21_linear_5_131)"/>
<path d="M567.831 163.305H489.785L493.924 16.6637L567.831 163.305Z" fill="url(#paint22_linear_5_131)"/>
<path d="M923.442 1.10654L881.439 46.5002L827.488 1.10654H923.442Z" fill="url(#paint23_linear_5_131)"/>
<path d="M923.442 1.10654L881.439 46.5002L827.488 1.10654L881.439 39.746L923.442 1.10654Z" fill="#E6FBEF"/>
<path d="M923.446 1.10654V163.306L881.439 46.5002L923.446 1.10654Z" fill="url(#paint24_linear_5_131)"/>
<path d="M923.446 163.308H850.341L881.439 46.5027L923.446 163.308Z" fill="url(#paint25_linear_5_131)"/>
<path d="M881.439 46.5002L850.337 163.306L824.505 15.8316H821.139L826.994 1.10654H827.488L881.439 46.5002Z" fill="url(#paint26_linear_5_131)"/>
<path d="M646.865 53.8072L612.012 163.306V1.10654L646.865 53.8072Z" fill="url(#paint27_linear_5_131)"/>
<path d="M612.012 163.306L643.425 55.8558L612.012 1.10654L646.865 53.8072L612.012 163.306Z" fill="#E6FBEF"/>
<path d="M685.118 163.307H612.012L646.865 53.8084L685.118 163.307Z" fill="url(#paint28_linear_5_131)"/>
<path d="M709.707 1.10654L646.865 53.8072L612.012 1.10654H709.707Z" fill="url(#paint29_linear_5_131)"/>
<path d="M709.707 1.10654L646.865 53.8072L612.012 1.10654L646.865 48.05L709.707 1.10654Z" fill="#E6FBEF"/>
<path d="M713.658 15.8316H710.953L685.118 163.306L646.865 53.8072L709.707 1.10654H710.017L713.658 15.8316Z" fill="url(#paint30_linear_5_131)"/>
<path d="M754.82 182.626L713.879 117.414V16.7447L754.82 182.626Z" fill="url(#paint31_linear_5_131)"/>
<path d="M826.994 1.10654L821.139 15.8316H821.102V15.9423L754.82 182.626L713.879 16.7447V15.8316H713.658L710.017 1.10654H826.994Z" fill="url(#paint32_linear_5_131)"/>
<path d="M821.102 15.9435L754.82 182.627L713.879 16.7459L754.82 168.594L821.102 15.9435Z" fill="#E6FBEF"/>
<path d="M821.106 15.9435V308.318L754.824 182.627L821.106 15.9435Z" fill="url(#paint33_linear_5_131)"/>
<path d="M821.106 308.317V517.239L794.907 453.325L754.824 182.626L821.106 308.317Z" fill="url(#paint34_linear_5_131)"/>
<path d="M821.102 517.239H713.879L794.907 453.325L821.102 517.239Z" fill="url(#paint35_linear_5_131)"/>
<path d="M794.907 453.331L713.879 517.239V117.416L754.82 182.627L794.907 453.331Z" fill="url(#paint36_linear_5_131)"/>
<path d="M713.879 517.239L789.546 449.146L754.82 182.626L794.907 453.325L713.879 517.239Z" fill="#E6FBEF"/>
<path d="M1239.34 0.947662L1205.64 122.74L1132.03 0.947662H1239.34Z" fill="url(#paint37_linear_5_131)"/>
<path d="M1239.35 0.95694L1205.65 122.749L1132.03 0.95694L1206.4 112.526L1239.35 0.95694Z" fill="#E6FBEF"/>
<path d="M1205.64 122.74L1132.03 298.202V0.947662L1205.64 122.74Z" fill="url(#paint38_linear_5_131)"/>
<path d="M1239.34 0.947662V350.781C1239.34 367.515 1238.2 383.304 1235.91 398.128L1205.64 122.731L1239.34 0.947662Z" fill="url(#paint39_linear_5_131)"/>
<path d="M1208.92 127.717L1235.92 398.146L1205.65 122.749L1239.35 0.95694L1208.92 127.708V127.717Z" fill="#E6FBEF"/>
<path d="M1235.91 398.128C1234.64 406.38 1233.03 414.336 1231.06 421.977C1225.5 443.397 1217.7 461.732 1207.63 476.977C1202.08 485.372 1195.94 492.716 1189.17 499.003L1157.18 462.851L1205.63 122.74L1235.9 398.134H1235.91V398.128Z" fill="url(#paint40_linear_5_131)"/>
<path d="M1205.64 122.74L1157.19 462.851L1124.94 499.503C1129.66 492.357 1132.03 482.633 1132.03 470.319V298.193L1205.64 122.731V122.74Z" fill="url(#paint41_linear_5_131)"/>
<path d="M1189.18 499.015C1183.63 504.195 1177.68 508.652 1171.28 512.423C1157.15 520.787 1141.46 524.972 1124.23 524.972H1089.76L1081.21 490.397C1082.36 493.804 1083.84 496.827 1085.67 499.516C1090.54 506.631 1097.21 510.204 1105.67 510.204C1114.13 510.204 1120.23 506.631 1124.94 499.516L1157.19 462.864L1189.18 499.015Z" fill="url(#paint42_linear_5_131)"/>
<path d="M1078.35 0.947662L1018.31 236.055L971.043 0.947662H1078.35Z" fill="url(#paint43_linear_5_131)"/>
<path d="M1052.57 101.899L1018.31 236.074L997.014 130.101L1017.91 222.417L1052.57 101.899Z" fill="#E6FBEF"/>
<path d="M1079.39 483.016L1018.31 236.055L1078.35 0.947662V470.331C1078.35 474.931 1078.7 479.165 1079.39 483.016Z" fill="url(#paint44_linear_5_131)"/>
<path d="M1078.35 483.035L1018.31 236.073L1077.33 0.95694V1.17825L1021.75 236.064L1078.35 483.029V483.035Z" fill="#E6FBEF"/>
<path d="M1018.31 236.055L971.043 320.78V0.947662L1018.31 236.055Z" fill="url(#paint45_linear_5_131)"/>
<path d="M1089.76 524.972H1086.17C1068.92 524.972 1053.23 520.787 1039.09 512.423C1024.94 504.059 1012.83 492.252 1002.75 476.989C992.679 461.751 984.858 443.403 979.346 421.989C973.793 400.607 971.052 376.862 971.052 350.787V337.571L1089.76 524.972H1089.76Z" fill="url(#paint46_linear_5_131)"/>
<path d="M1089.76 524.972L971.043 337.571V320.78L1018.31 236.055L1079.39 483.016V483.072C1079.83 485.681 1080.46 488.116 1081.21 490.385L1089.76 524.96V524.972Z" fill="url(#paint47_linear_5_131)"/>
<path d="M1540.67 185.137V258.893C1532.61 270.5 1523.11 279.476 1512.16 285.82C1500.29 292.718 1487.03 296.153 1472.4 296.153H1408.02V281.415H1410.45C1418.09 281.415 1424.92 279.005 1430.89 274.157L1431.6 273.575L1540.67 185.137Z" fill="url(#paint48_linear_5_131)"/>
<path d="M1569 148.541C1569 170.703 1566.71 190.872 1562.16 209.072C1557.6 227.273 1551.1 242.898 1542.65 255.946C1542 256.944 1541.35 257.913 1540.67 258.883V185.128L1568.8 137.201C1568.93 140.913 1569 144.709 1569 148.532V148.541Z" fill="url(#paint49_linear_5_131)"/>
<path d="M1568.8 137.202L1540.66 185.128L1501.54 6.18491C1505.2 7.57025 1508.73 9.25974 1512.16 11.2546C1524.02 18.1523 1534.18 28.1254 1542.65 41.1462C1551.11 54.1941 1557.61 69.8187 1562.17 88.0198C1565.92 103.063 1568.14 119.472 1568.8 137.202Z" fill="url(#paint50_linear_5_131)"/>
<path d="M1568.8 137.22L1540.67 185.147L1501.55 6.19418L1540.67 172.458L1568.8 137.211V137.22Z" fill="#E6FBEF"/>
<path d="M1501.54 6.18366L1408.02 15.6857L1300.69 0.947662H1472.4C1482.82 0.947662 1492.53 2.69279 1501.54 6.18366Z" fill="#635FED"/>
<path d="M1408.02 15.6857V281.414L1375.16 137.57L1408.02 15.6944V15.6857Z" fill="url(#paint51_linear_5_131)"/>
<path d="M1375.16 137.57L1300.69 281.414V0.947662L1375.16 137.57Z" fill="url(#paint52_linear_5_131)"/>
<path d="M1408.02 281.415V517.573L1332.37 429.303L1375.16 137.562L1408.02 281.406V281.415Z" fill="url(#paint53_linear_5_131)"/>
<path d="M1375.16 137.562L1332.37 429.303L1300.69 517.573V281.415L1375.16 137.571V137.562Z" fill="url(#paint54_linear_5_131)"/>
<path d="M1361.18 232.97L1370.59 151.014L1300.69 281.422L1375.17 137.579L1361.18 232.97Z" fill="#E6FBEF"/>
<path d="M1408.02 517.573H1300.69L1332.37 429.303L1408.02 517.573Z" fill="url(#paint55_linear_5_131)"/>
<path d="M1408.02 15.6857L1375.16 137.561L1300.69 0.947662L1408.02 15.6857Z" fill="url(#paint56_linear_5_131)"/>
<path d="M1408.02 15.7043L1375.17 137.579L1300.69 0.95694L1375.17 125.519L1407.65 15.6394L1408.02 15.695V15.7043Z" fill="#E6FBEF"/>
<path d="M1540.67 185.137L1451.08 56.835C1450.34 54.4804 1449.56 52.2085 1448.75 50.0202C1440.12 27.1376 1427.35 15.6963 1410.45 15.6963H1408.02L1501.54 6.19418L1540.67 185.147V185.137Z" fill="url(#paint57_linear_5_131)"/>
<path d="M1451.1 56.8443L1532.66 165.2L1501.55 6.19418L1540.68 185.147L1451.1 56.8443Z" fill="#E6FBEF"/>
<path d="M1540.67 185.137L1431.6 273.575C1438.3 267.951 1443.93 259.224 1448.51 247.451C1457.27 224.836 1461.67 191.841 1461.67 148.541C1461.67 109.812 1458.14 79.2466 1451.08 56.8344L1540.67 185.137Z" fill="url(#paint58_linear_5_131)"/>
<path d="M431.246 15.7049L397.548 67.4548L358.491 450.376L394.258 64.49L431.246 15.7049Z" fill="#E6FBEF"/>
<defs>
<linearGradient id="paint0_linear_5_131" x1="222.957" y1="112.665" x2="292.728" y2="86.0073" gradientUnits="userSpaceOnUse">
<stop stop-color="#54E694"/>
<stop offset="1" stop-color="#635FED"/>
</linearGradient>
<linearGradient id="paint1_linear_5_131" x1="235.585" y1="66.1776" x2="195.34" y2="172.579" gradientUnits="userSpaceOnUse">
<stop stop-color="#33E180"/>
<stop offset="1" stop-color="#4E55C4"/>
</linearGradient>
<linearGradient id="paint2_linear_5_131" x1="180.793" y1="46.5095" x2="137.374" y2="144.359" gradientUnits="userSpaceOnUse">
<stop stop-color="#00DA60"/>
<stop offset="0.98" stop-color="#3F3F9E"/>
</linearGradient>
<linearGradient id="paint3_linear_5_131" x1="68.0542" y1="96.5983" x2="16.2223" y2="49.1803" gradientUnits="userSpaceOnUse">
<stop stop-color="#33E180"/>
<stop offset="1" stop-color="#4E55C4"/>
</linearGradient>
<linearGradient id="paint4_linear_5_131" x1="17.7064" y1="135.816" x2="259.658" y2="307.417" gradientUnits="userSpaceOnUse">
<stop stop-color="#33E180"/>
<stop offset="1" stop-color="#4E55C4"/>
</linearGradient>
<linearGradient id="paint5_linear_5_131" x1="288.77" y1="213.395" x2="171.107" y2="317.09" gradientUnits="userSpaceOnUse">
<stop stop-color="#33E180"/>
<stop offset="1" stop-color="#4E55C4"/>
</linearGradient>
<linearGradient id="paint6_linear_5_131" x1="167.501" y1="546.689" x2="296.211" y2="438.175" gradientUnits="userSpaceOnUse">
<stop stop-color="#0B873D"/>
<stop offset="1" stop-color="#202059"/>
</linearGradient>
<linearGradient id="paint7_linear_5_131" x1="86.4503" y1="476.798" x2="237.938" y2="404.11" gradientUnits="userSpaceOnUse">
<stop stop-color="#00DA60"/>
<stop offset="1" stop-color="#3F3F9E"/>
</linearGradient>
<linearGradient id="paint8_linear_5_131" x1="48.0339" y1="315.139" x2="-22.7434" y2="452.802" gradientUnits="userSpaceOnUse">
<stop stop-color="#54E694"/>
<stop offset="1" stop-color="#635FED"/>
</linearGradient>
<linearGradient id="paint9_linear_5_131" x1="-25.8801" y1="351.3" x2="65.094" y2="474.707" gradientUnits="userSpaceOnUse">
<stop stop-color="#33E180"/>
<stop offset="1" stop-color="#4E55C4"/>
</linearGradient>
<linearGradient id="paint10_linear_5_131" x1="90.9967" y1="538.671" x2="35.2106" y2="525.776" gradientUnits="userSpaceOnUse">
<stop stop-color="#0B873D"/>
<stop offset="1" stop-color="#202059"/>
</linearGradient>
<linearGradient id="paint11_linear_5_131" x1="100.36" y1="47.6934" x2="396.077" y2="252.293" gradientUnits="userSpaceOnUse">
<stop stop-color="#54E694"/>
<stop offset="1" stop-color="#635FED"/>
</linearGradient>
<linearGradient id="paint12_linear_5_131" x1="113.276" y1="451.557" x2="58.7279" y2="437.647" gradientUnits="userSpaceOnUse">
<stop stop-color="#00DA60"/>
<stop offset="1" stop-color="#3F3F9E"/>
</linearGradient>
<linearGradient id="paint13_linear_5_131" x1="521.01" y1="-11.6292" x2="633.641" y2="90.2624" gradientUnits="userSpaceOnUse">
<stop stop-color="#54E694"/>
<stop offset="1" stop-color="#635FED"/>
</linearGradient>
<linearGradient id="paint14_linear_5_131" x1="495.534" y1="14.4852" x2="451.147" y2="92.3778" gradientUnits="userSpaceOnUse">
<stop stop-color="#00DA60"/>
<stop offset="1" stop-color="#3F3F9E"/>
</linearGradient>
<linearGradient id="paint15_linear_5_131" x1="496.045" y1="422.608" x2="579.935" y2="430.191" gradientUnits="userSpaceOnUse">
<stop stop-color="#00DA60"/>
<stop offset="1" stop-color="#3F3F9E"/>
</linearGradient>
<linearGradient id="paint16_linear_5_131" x1="476.858" y1="355.214" x2="476.858" y2="503.416" gradientUnits="userSpaceOnUse">
<stop stop-color="#54E694"/>
<stop offset="1" stop-color="#635FED"/>
</linearGradient>
<linearGradient id="paint17_linear_5_131" x1="495.142" y1="510.804" x2="350.824" y2="519.513" gradientUnits="userSpaceOnUse">
<stop stop-color="#0B873D"/>
<stop offset="1" stop-color="#202059"/>
</linearGradient>
<linearGradient id="paint18_linear_5_131" x1="336.813" y1="-4.71303" x2="413.916" y2="442.441" gradientUnits="userSpaceOnUse">
<stop stop-color="#33E180"/>
<stop offset="1" stop-color="#4E55C4"/>
</linearGradient>
<linearGradient id="paint19_linear_5_131" x1="480.11" y1="44.3409" x2="319.762" y2="434.504" gradientUnits="userSpaceOnUse">
<stop stop-color="#54E694"/>
<stop offset="1" stop-color="#635FED"/>
</linearGradient>
<linearGradient id="paint20_linear_5_131" x1="466.018" y1="475.92" x2="592.38" y2="369.798" gradientUnits="userSpaceOnUse">
<stop stop-color="#33E180"/>
<stop offset="1" stop-color="#4E55C4"/>
</linearGradient>
<linearGradient id="paint21_linear_5_131" x1="419.663" y1="541.354" x2="336.109" y2="514.33" gradientUnits="userSpaceOnUse">
<stop stop-color="#0B873D"/>
<stop offset="1" stop-color="#202059"/>
</linearGradient>
<linearGradient id="paint22_linear_5_131" x1="492.376" y1="12.0922" x2="564.814" y2="143.448" gradientUnits="userSpaceOnUse">
<stop stop-color="#33E180"/>
<stop offset="1" stop-color="#4E55C4"/>
</linearGradient>
<linearGradient id="paint23_linear_5_131" x1="883.106" y1="45.3931" x2="812.888" y2="18.6716" gradientUnits="userSpaceOnUse">
<stop stop-color="#54E694"/>
<stop offset="1" stop-color="#635FED"/>
</linearGradient>
<linearGradient id="paint24_linear_5_131" x1="882.191" y1="38.4732" x2="964.843" y2="134.079" gradientUnits="userSpaceOnUse">
<stop stop-color="#33E180"/>
<stop offset="1" stop-color="#4E55C4"/>
</linearGradient>
<linearGradient id="paint25_linear_5_131" x1="882.191" y1="45.3949" x2="921.669" y2="162.829" gradientUnits="userSpaceOnUse">
<stop stop-color="#0B873D"/>
<stop offset="1" stop-color="#202059"/>
</linearGradient>
<linearGradient id="paint26_linear_5_131" x1="882.191" y1="45.3931" x2="817.435" y2="25.999" gradientUnits="userSpaceOnUse">
<stop stop-color="#00DA60"/>
<stop offset="1" stop-color="#3F3F9E"/>
</linearGradient>
<linearGradient id="paint27_linear_5_131" x1="646.187" y1="59.2323" x2="595.837" y2="22.4497" gradientUnits="userSpaceOnUse">
<stop stop-color="#33E180"/>
<stop offset="1" stop-color="#4E55C4"/>
</linearGradient>
<linearGradient id="paint28_linear_5_131" x1="648.017" y1="53.6978" x2="577.112" y2="138.904" gradientUnits="userSpaceOnUse">
<stop stop-color="#0B873D"/>
<stop offset="1" stop-color="#202059"/>
</linearGradient>
<linearGradient id="paint29_linear_5_131" x1="643.441" y1="53.6965" x2="721.092" y2="24.1678" gradientUnits="userSpaceOnUse">
<stop stop-color="#54E694"/>
<stop offset="1" stop-color="#635FED"/>
</linearGradient>
<linearGradient id="paint30_linear_5_131" x1="646.187" y1="55.0806" x2="723.321" y2="28.2121" gradientUnits="userSpaceOnUse">
<stop stop-color="#00DA60"/>
<stop offset="1" stop-color="#3F3F9E"/>
</linearGradient>
<linearGradient id="paint31_linear_5_131" x1="754.125" y1="183.788" x2="674.208" y2="39.7198" gradientUnits="userSpaceOnUse">
<stop stop-color="#00DA60"/>
<stop offset="1" stop-color="#3F3F9E"/>
</linearGradient>
<linearGradient id="paint32_linear_5_131" x1="812.84" y1="166.406" x2="741.881" y2="-64.0209" gradientUnits="userSpaceOnUse">
<stop stop-color="#54E694"/>
<stop offset="1" stop-color="#635FED"/>
</linearGradient>
<linearGradient id="paint33_linear_5_131" x1="749.553" y1="185.173" x2="878.592" y2="60.6696" gradientUnits="userSpaceOnUse">
<stop stop-color="#33E180"/>
<stop offset="1" stop-color="#4E55C4"/>
</linearGradient>
<linearGradient id="paint34_linear_5_131" x1="754.125" y1="183.789" x2="837.315" y2="439.07" gradientUnits="userSpaceOnUse">
<stop stop-color="#00DA60"/>
<stop offset="1" stop-color="#3F3F9E"/>
</linearGradient>
<linearGradient id="paint35_linear_5_131" x1="711.133" y1="524.243" x2="805.19" y2="491.087" gradientUnits="userSpaceOnUse">
<stop stop-color="#0B873D"/>
<stop offset="1" stop-color="#202059"/>
</linearGradient>
<linearGradient id="paint36_linear_5_131" x1="754.125" y1="182.406" x2="833.736" y2="438.923" gradientUnits="userSpaceOnUse">
<stop stop-color="#33E180"/>
<stop offset="1" stop-color="#4E55C4"/>
</linearGradient>
<linearGradient id="paint37_linear_5_131" x1="1230.11" y1="70.1315" x2="1078.82" y2="-1.75348" gradientUnits="userSpaceOnUse">
<stop stop-color="#54E694"/>
<stop offset="1" stop-color="#635FED"/>
</linearGradient>
<linearGradient id="paint38_linear_5_131" x1="1189.27" y1="28.7893" x2="1029.49" y2="176.089" gradientUnits="userSpaceOnUse">
<stop stop-color="#00DA60"/>
<stop offset="1" stop-color="#3F3F9E"/>
</linearGradient>
<linearGradient id="paint39_linear_5_131" x1="1220.58" y1="109.027" x2="1309.49" y2="315.275" gradientUnits="userSpaceOnUse">
<stop stop-color="#33E180"/>
<stop offset="1" stop-color="#4E55C4"/>
</linearGradient>
<linearGradient id="paint40_linear_5_131" x1="1196.55" y1="122.749" x2="1196.55" y2="499.015" gradientUnits="userSpaceOnUse">
<stop stop-color="#00DA60"/>
<stop offset="1" stop-color="#3F3F9E"/>
</linearGradient>
<linearGradient id="paint41_linear_5_131" x1="1219.68" y1="54.489" x2="1003.3" y2="465.023" gradientUnits="userSpaceOnUse">
<stop stop-color="#54E694"/>
<stop offset="1" stop-color="#4E55C4"/>
</linearGradient>
<linearGradient id="paint42_linear_5_131" x1="1225.82" y1="420.543" x2="1076.29" y2="474.107" gradientUnits="userSpaceOnUse">
<stop stop-color="#0B873D"/>
<stop offset="1" stop-color="#202059"/>
</linearGradient>
<linearGradient id="paint43_linear_5_131" x1="1065.37" y1="215.047" x2="945.873" y2="-59.75" gradientUnits="userSpaceOnUse">
<stop stop-color="#54E694"/>
<stop offset="1" stop-color="#635FED"/>
</linearGradient>
<linearGradient id="paint44_linear_5_131" x1="1033.42" y1="45.0234" x2="1213.5" y2="432.729" gradientUnits="userSpaceOnUse">
<stop stop-color="#33E180"/>
<stop offset="1" stop-color="#4E55C4"/>
</linearGradient>
<linearGradient id="paint45_linear_5_131" x1="991.293" y1="251.735" x2="872.486" y2="18.81" gradientUnits="userSpaceOnUse">
<stop stop-color="#33E180"/>
<stop offset="1" stop-color="#4E55C4"/>
</linearGradient>
<linearGradient id="paint46_linear_5_131" x1="918.102" y1="283.143" x2="1142.02" y2="449.569" gradientUnits="userSpaceOnUse">
<stop stop-color="#0B873D"/>
<stop offset="1" stop-color="#202059"/>
</linearGradient>
<linearGradient id="paint47_linear_5_131" x1="966.41" y1="170.158" x2="1147.41" y2="492.813" gradientUnits="userSpaceOnUse">
<stop stop-color="#00DA60"/>
<stop offset="1" stop-color="#3F3F9E"/>
</linearGradient>
<linearGradient id="paint48_linear_5_131" x1="1539.1" y1="174.001" x2="1420.52" y2="250.913" gradientUnits="userSpaceOnUse">
<stop stop-color="#0B873D"/>
<stop offset="1" stop-color="#202059"/>
</linearGradient>
<linearGradient id="paint49_linear_5_131" x1="1551.49" y1="175.893" x2="1577.71" y2="254.002" gradientUnits="userSpaceOnUse">
<stop stop-color="#00DA60"/>
<stop offset="1" stop-color="#3F3F9E"/>
</linearGradient>
<linearGradient id="paint50_linear_5_131" x1="1550.24" y1="174.509" x2="1483.43" y2="-34.4786" gradientUnits="userSpaceOnUse">
<stop stop-color="#54E694"/>
<stop offset="1" stop-color="#635FED"/>
</linearGradient>
<linearGradient id="paint51_linear_5_131" x1="1403.78" y1="161.044" x2="1489.29" y2="50.8587" gradientUnits="userSpaceOnUse">
<stop stop-color="#33E180"/>
<stop offset="1" stop-color="#4E55C4"/>
</linearGradient>
<linearGradient id="paint52_linear_5_131" x1="1336.6" y1="204.15" x2="1179.31" y2="83.6688" gradientUnits="userSpaceOnUse">
<stop stop-color="#33E180"/>
<stop offset="1" stop-color="#4E55C4"/>
</linearGradient>
<linearGradient id="paint53_linear_5_131" x1="1349.06" y1="142.364" x2="1433.04" y2="512.151" gradientUnits="userSpaceOnUse">
<stop stop-color="#00DA60"/>
<stop offset="1" stop-color="#3F3F9E"/>
</linearGradient>
<linearGradient id="paint54_linear_5_131" x1="1428.38" y1="190.549" x2="1183.76" y2="352.439" gradientUnits="userSpaceOnUse">
<stop stop-color="#54E694"/>
<stop offset="1" stop-color="#635FED"/>
</linearGradient>
<linearGradient id="paint55_linear_5_131" x1="1432.08" y1="385.727" x2="1278.05" y2="481.103" gradientUnits="userSpaceOnUse">
<stop stop-color="#0B873D"/>
<stop offset="1" stop-color="#202059"/>
</linearGradient>
<linearGradient id="paint56_linear_5_131" x1="1344.47" y1="117.642" x2="1370.45" y2="-7.91801" gradientUnits="userSpaceOnUse">
<stop stop-color="#54E694"/>
<stop offset="1" stop-color="#635FED"/>
</linearGradient>
<linearGradient id="paint57_linear_5_131" x1="1532.17" y1="195.785" x2="1379.72" y2="36.7091" gradientUnits="userSpaceOnUse">
<stop stop-color="#33E180"/>
<stop offset="1" stop-color="#4E55C4"/>
</linearGradient>
<linearGradient id="paint58_linear_5_131" x1="1504.57" y1="247.22" x2="1372.52" y2="172.38" gradientUnits="userSpaceOnUse">
<stop stop-color="#00DA60"/>
<stop offset="1" stop-color="#3F3F9E"/>
</linearGradient>
</defs>
</svg>
