<svg width="48" height="48" viewBox="0 0 163 152" fill="none" xmlns="http://www.w3.org/2000/svg">
    <path opacity="0.5"
        d="M162.384 1.0241L122.644 139.591C122.442 140.22 121.634 140.408 121.162 139.968L94.5564 115.123L114.494 45.6823C114.696 45.0535 114.09 44.4873 113.416 44.6761L39.0552 63.2943L12.5845 38.5747C12.113 38.1347 12.3151 37.3797 12.9886 37.191L161.306 0.0177132C161.98 -0.108085 162.586 0.458006 162.384 1.0241Z"
        fill="#00B37E" />
    <path opacity="0.5"
        d="M94.5551 115.123L84.3173 150.975C84.1152 151.604 83.3069 151.793 82.8352 151.353L0.256961 74.3011C-0.21453 73.8607 -0.0124636 73.1058 0.661096 72.9174L39.0539 63.2937L94.5551 115.123Z"
        fill="#00B37E" />
    <path
        d="M114.489 45.682L94.5521 115.123L39.0509 63.2937L113.412 44.6757C114.085 44.487 114.692 45.0532 114.489 45.682Z"
        fill="#00B37E" />
</svg>